<svg width="fit" height="fit" viewBox="0 0 50 50" fill="none" xmlns="http://www.w3.org/2000/svg">
<rect width="50" height="50" rx="6" fill="white"/>
<g clip-path="url(#clip0_1_658)">
<path d="M13.75 22.5C13.75 23.6491 13.9763 24.7869 14.4161 25.8485C14.8558 26.9101 15.5003 27.8747 16.3128 28.6872C17.1253 29.4997 18.0899 30.1442 19.1515 30.5839C20.2131 31.0237 21.3509 31.25 22.5 31.25C23.6491 31.25 24.7869 31.0237 25.8485 30.5839C26.9101 30.1442 27.8747 29.4997 28.6872 28.6872C29.4997 27.8747 30.1442 26.9101 30.5839 25.8485C31.0237 24.7869 31.25 23.6491 31.25 22.5C31.25 21.3509 31.0237 20.2131 30.5839 19.1515C30.1442 18.0899 29.4997 17.1253 28.6872 16.3128C27.8747 15.5003 26.9101 14.8558 25.8485 14.4161C24.7869 13.9763 23.6491 13.75 22.5 13.75C21.3509 13.75 20.2131 13.9763 19.1515 14.4161C18.0899 14.8558 17.1253 15.5003 16.3128 16.3128C15.5003 17.1253 14.8558 18.0899 14.4161 19.1515C13.9763 20.2131 13.75 21.3509 13.75 22.5Z" stroke="#05A987" stroke-width="2.08333" stroke-linecap="round" stroke-linejoin="round"/>
<path d="M36.25 36.25L28.75 28.75" stroke="#05A987" stroke-width="2.08333" stroke-linecap="round" stroke-linejoin="round"/>
<path d="M18.7499 22.4999L21.2499 24.9999L26.2499 19.9999" stroke="#05A987" stroke-width="2.08333" stroke-linecap="round" stroke-linejoin="round"/>
</g>
<defs>
<clipPath id="clip0_1_658">
<rect width="30" height="30" fill="white" transform="translate(10 10)"/>
</clipPath>
</defs>
</svg>
